<svg width="24" height="24" viewBox="0 0 24 24" fill="none" xmlns="http://www.w3.org/2000/svg">
<g clip-path="url(#clip0_413_48)">
<path d="M9 10C11.2091 10 13 8.20914 13 6C13 3.79086 11.2091 2 9 2C6.79086 2 5 3.79086 5 6C5 8.20914 6.79086 10 9 10Z" stroke="black" stroke-width="1.5"/>
<path opacity="0.5" d="M12.5 4.341C12.8564 3.8041 13.3761 3.39621 13.9823 3.17772C14.5886 2.95922 15.249 2.94173 15.866 3.12784C16.4829 3.31394 17.0235 3.69375 17.4078 4.21104C17.7921 4.72833 17.9995 5.3556 17.9995 6C17.9995 6.6444 17.7921 7.27167 17.4078 7.78896C17.0235 8.30625 16.4829 8.68606 15.866 8.87216C15.249 9.05827 14.5886 9.04078 13.9823 8.82228C13.3761 8.60379 12.8564 8.1959 12.5 7.659" stroke="black" stroke-width="1.5"/>
<path d="M9 21C12.866 21 16 19.2091 16 17C16 14.7909 12.866 13 9 13C5.13401 13 2 14.7909 2 17C2 19.2091 5.13401 21 9 21Z" stroke="black" stroke-width="1.5"/>
<path opacity="0.5" d="M18 14C19.754 14.385 21 15.359 21 16.5C21 17.53 19.986 18.423 18.5 18.87" stroke="black" stroke-width="1.5" stroke-linecap="round"/>
</g>
<defs>
<clipPath id="clip0_413_48">
<rect width="24" height="24" fill="white"/>
</clipPath>
</defs>
</svg>
