<svg width="24" height="24" viewBox="0 0 24 24" fill="none" xmlns="http://www.w3.org/2000/svg">
<path d="M6.196 17.485C7.046 16.873 7.948 16.3893 8.902 16.034C9.85533 15.678 10.888 15.5 12 15.5C13.1113 15.5 14.144 15.678 15.098 16.034C16.0513 16.3893 16.9533 16.8727 17.804 17.484C18.464 16.8013 18.995 15.9947 19.397 15.064C19.799 14.132 20 13.1107 20 12C20 9.78333 19.221 7.89567 17.663 6.337C16.105 4.77833 14.2173 3.99933 12 4C9.78333 4 7.89567 4.77933 6.337 6.338C4.77833 7.89667 3.99933 9.784 4 12C4 13.1113 4.201 14.1323 4.603 15.063C5.005 15.9943 5.536 16.8017 6.196 17.485ZM12.001 12.5C11.1583 12.5 10.4473 12.2107 9.868 11.632C9.28933 11.054 9 10.3437 9 9.501C9 8.65833 9.28933 7.94733 9.868 7.368C10.446 6.78933 11.1563 6.5 11.999 6.5C12.8417 6.5 13.5527 6.78933 14.132 7.368C14.7107 7.946 15 8.65633 15 9.499C15 10.3417 14.7107 11.0527 14.132 11.632C13.554 12.2107 12.8437 12.5 12.001 12.5ZM12 21C10.7447 21 9.56967 20.7663 8.475 20.299C7.38033 19.8323 6.42767 19.1937 5.617 18.383C4.807 17.5723 4.16833 16.6197 3.701 15.525C3.23367 14.4303 3 13.2553 3 12C3 10.7447 3.23367 9.56967 3.701 8.475C4.16767 7.38033 4.80633 6.42767 5.617 5.617C6.42767 4.807 7.38033 4.16833 8.475 3.701C9.56967 3.23367 10.7447 3 12 3C13.2553 3 14.4303 3.23367 15.525 3.701C16.6197 4.16767 17.5723 4.80633 18.383 5.617C19.193 6.42767 19.8317 7.38033 20.299 8.475C20.7663 9.56967 21 10.7447 21 12C21 13.2553 20.7663 14.4303 20.299 15.525C19.8323 16.6197 19.1937 17.5723 18.383 18.383C17.5723 19.193 16.6197 19.8317 15.525 20.299C14.4303 20.7663 13.2553 21 12 21ZM12 20C12.922 20 13.829 19.8387 14.721 19.516C15.6137 19.194 16.385 18.7527 17.035 18.192C16.385 17.6707 15.633 17.2583 14.779 16.955C13.9257 16.6517 12.9993 16.5 12 16.5C11.0013 16.5 10.072 16.6483 9.212 16.945C8.352 17.2417 7.603 17.6573 6.965 18.192C7.615 18.752 8.38633 19.1933 9.279 19.516C10.171 19.8387 11.078 20 12 20ZM12 11.5C12.5613 11.5 13.035 11.307 13.421 10.921C13.807 10.535 14 10.0613 14 9.5C14 8.93867 13.807 8.465 13.421 8.079C13.035 7.693 12.5613 7.5 12 7.5C11.4387 7.5 10.965 7.693 10.579 8.079C10.193 8.465 10 8.93867 10 9.5C10 10.0613 10.193 10.535 10.579 10.921C10.965 11.307 11.4387 11.5 12 11.5Z" fill="#888888"/>
</svg>
