<svg width="24" height="24" viewBox="0 0 24 24" fill="none" xmlns="http://www.w3.org/2000/svg">
<path d="M14 12C14 13.1867 13.6481 14.3467 12.9888 15.3334C12.3295 16.3201 11.3925 17.0892 10.2961 17.5433C9.19975 17.9974 7.99335 18.1162 6.82946 17.8847C5.66558 17.6532 4.59648 17.0818 3.75736 16.2426C2.91825 15.4035 2.3468 14.3344 2.11529 13.1705C1.88378 12.0067 2.0026 10.8003 2.45673 9.7039C2.91085 8.60754 3.67989 7.67047 4.66658 7.01118C5.65328 6.35189 6.81331 6 8 6" stroke="#888888" stroke-width="1.5" stroke-linecap="round"/>
<path d="M10 12C10 10.4087 10.6321 8.88258 11.7574 7.75736C12.8826 6.63214 14.4087 6 16 6M16 18C17.085 18.0002 18.1498 17.7061 19.081 17.1491C20.0121 16.5921 20.7748 15.793 21.2879 14.8369C21.8009 13.8809 22.0451 12.8036 21.9944 11.7197C21.9437 10.6359 21.6 9.58603 21 8.682" stroke="#888888" stroke-width="1.5" stroke-linecap="round"/>
</svg>
