<svg width="21" height="22" viewBox="0 0 21 22" fill="none" xmlns="http://www.w3.org/2000/svg">
<path d="M13.125 11H10.5M10.5 11H7.875M10.5 11V8.25001M10.5 11V13.75M19.25 11C19.25 15.3212 19.25 17.4818 17.9681 18.8238C16.688 20.1667 14.6248 20.1667 10.5 20.1667C6.37525 20.1667 4.31288 20.1667 3.031 18.8238C1.75 17.4827 1.75 15.3212 1.75 11C1.75 6.67884 1.75 4.51826 3.031 3.17534C4.31375 1.83334 6.37525 1.83334 10.5 1.83334C14.6248 1.83334 16.6871 1.83334 17.9681 3.17534C18.8204 4.06818 19.1056 5.32309 19.2019 7.33334" stroke="#888888" stroke-width="1.5" stroke-linecap="round"/>
</svg>
