<svg width="22" height="22" viewBox="0 0 22 22" fill="none" xmlns="http://www.w3.org/2000/svg">
<path d="M2.90759 19.0923C3.981 20.1667 5.70984 20.1667 9.16659 20.1667H12.8333C16.29 20.1667 18.0188 20.1667 19.0923 19.0923C20.1666 18.0189 20.1666 16.2901 20.1666 12.8333C20.1666 11.7608 20.1666 10.8552 20.1345 10.0833M19.0923 6.57434C18.0188 5.50001 16.29 5.50001 12.8333 5.50001H9.16659C5.70984 5.50001 3.981 5.50001 2.90759 6.57434C1.83325 7.64776 1.83325 9.37659 1.83325 12.8333C1.83325 13.9058 1.83325 14.8115 1.86534 15.5833M10.9999 1.83334C12.7288 1.83334 13.5923 1.83334 14.1294 2.37051C14.6666 2.90768 14.6666 3.77118 14.6666 5.50001M7.87042 2.37051C7.33325 2.90768 7.33325 3.77118 7.33325 5.50001" stroke="#888888" stroke-width="1.5" stroke-linecap="round"/>
<path d="M10.9998 15.8886C12.0128 15.8886 12.8332 15.2048 12.8332 14.3614C12.8332 13.5181 12.0128 12.8334 10.9998 12.8334C9.98692 12.8334 9.1665 12.1495 9.1665 11.3053C9.1665 10.4619 9.98692 9.7781 10.9998 9.7781M10.9998 15.8886C9.98692 15.8886 9.1665 15.2048 9.1665 14.3614M10.9998 15.8886V16.5M10.9998 9.7781V9.16669M10.9998 9.7781C12.0128 9.7781 12.8332 10.4619 12.8332 11.3053" stroke="#888888" stroke-width="1.5" stroke-linecap="round"/>
</svg>
